<mxfile host="app.diagrams.net"><diagram name="ER Diagram"><mxGraphModel><root><mxCell id="0" /><mxCell id="1" parent="0" /><mxCell id="2" value="User&#10;user_id (PK)&#10;first_name&#10;last_name&#10;email (Unique)&#10;password_hash&#10;phone_number&#10;role&#10;created_at" style="shape=swimlane;" vertex="1" edge="0" parent="1"><mxGeometry x="0" y="0" width="160" height="120" as="geometry" /></mxCell><mxCell id="3" value="Property&#10;property_id (PK)&#10;host_id (FK)&#10;name&#10;description&#10;location&#10;pricepernight&#10;created_at&#10;updated_at" style="shape=swimlane;" vertex="1" edge="0" parent="1"><mxGeometry x="180" y="0" width="160" height="120" as="geometry" /></mxCell><mxCell id="4" value="Booking&#10;booking_id (PK)&#10;property_id (FK)&#10;user_id (FK)&#10;start_date&#10;end_date&#10;total_price&#10;status&#10;created_at" style="shape=swimlane;" vertex="1" edge="0" parent="1"><mxGeometry x="360" y="0" width="160" height="120" as="geometry" /></mxCell><mxCell id="5" value="Payment&#10;payment_id (PK)&#10;booking_id (FK)&#10;amount&#10;payment_date&#10;payment_method" style="shape=swimlane;" vertex="1" edge="0" parent="1"><mxGeometry x="540" y="0" width="160" height="120" as="geometry" /></mxCell><mxCell id="6" value="Review&#10;review_id (PK)&#10;property_id (FK)&#10;user_id (FK)&#10;rating&#10;comment&#10;created_at" style="shape=swimlane;" vertex="1" edge="0" parent="1"><mxGeometry x="720" y="0" width="160" height="120" as="geometry" /></mxCell><mxCell id="7" value="Message&#10;message_id (PK)&#10;sender_id (FK)&#10;recipient_id (FK)&#10;message_body&#10;sent_at" style="shape=swimlane;" vertex="1" edge="0" parent="1"><mxGeometry x="0" y="200" width="160" height="120" as="geometry" /></mxCell><mxCell id="8" value="" style="endArrow=block;" vertex="0" edge="1" parent="1" source="2" target="3" /><mxCell id="9" value="" style="endArrow=block;" vertex="0" edge="1" parent="1" source="2" target="4" /><mxCell id="10" value="" style="endArrow=block;" vertex="0" edge="1" parent="1" source="3" target="4" /><mxCell id="11" value="" style="endArrow=block;" vertex="0" edge="1" parent="1" source="4" target="5" /><mxCell id="12" value="" style="endArrow=block;" vertex="0" edge="1" parent="1" source="3" target="6" /><mxCell id="13" value="" style="endArrow=block;" vertex="0" edge="1" parent="1" source="2" target="6" /><mxCell id="14" value="" style="endArrow=block;" vertex="0" edge="1" parent="1" source="2" target="7" /><mxCell id="15" value="" style="endArrow=block;" vertex="0" edge="1" parent="1" source="2" target="7" /></root></mxGraphModel></diagram></mxfile>